<svg width="200" height="200" viewBox="0 0 200 200" fill="none" xmlns="http://www.w3.org/2000/svg">
<g filter="url(#filter0_b_472_1471)">
<path d="M19.2332 168.483L17.4718 161.556C14.3487 160.237 11.1534 159.094 7.90121 158.133L7.67889 161.352L6.77722 157.805C2.74391 156.656 0 156.15 0 156.15C0 156.15 3.70545 170.202 11.4799 180.945L20.5379 182.531L13.501 183.543C14.479 184.716 15.5299 185.827 16.6477 186.868C27.956 197.334 40.5516 202.135 44.7804 197.593C49.0092 193.05 43.27 180.884 31.9617 170.42C28.456 167.176 24.0522 164.572 19.6437 162.523L19.2332 168.483Z" fill="#01968B" fill-opacity="0.5"/>
</g>
<g filter="url(#filter1_b_472_1471)">
<path d="M35.9846 160.959L38.0677 154.123C36.0785 151.383 33.936 148.758 31.6503 146.26L29.7911 148.901L30.8576 145.4C28.0004 142.338 25.9138 140.492 25.9138 140.492C25.9138 140.492 21.8016 154.43 22.8863 167.633L29.818 173.659L23.2684 170.899C23.4976 172.407 23.8217 173.9 24.2388 175.368C28.4937 190.154 36.7866 200.756 42.7615 199.047C48.7365 197.338 50.1311 183.966 45.8763 169.179C44.5573 164.595 42.137 160.096 39.4258 156.07L35.9846 160.959Z" fill="#01968B" fill-opacity="0.5"/>
</g>
<path d="M139.559 47.3801H138.46V17.3698C138.46 15.0888 138.01 12.8301 137.134 10.7227C136.258 8.61528 134.975 6.70044 133.357 5.08751C131.74 3.47457 129.819 2.19511 127.705 1.3222C125.592 0.449283 123.326 0 121.038 0H57.2651C52.6445 0 48.2132 1.83003 44.946 5.08751C41.6788 8.34498 39.8433 12.7631 39.8433 17.3698V182.011C39.8433 184.293 40.2939 186.551 41.1694 188.659C42.0449 190.766 43.3282 192.681 44.946 194.294C46.5638 195.907 48.4843 197.186 50.598 198.059C52.7117 198.932 54.9772 199.381 57.2651 199.381H121.038C125.659 199.381 130.09 197.551 133.357 194.294C136.624 191.036 138.46 186.618 138.46 182.011V68.7421H139.559L139.559 47.3801Z" fill="#4F4F4F"/>
<path d="M121.741 4.51735H113.417C113.8 5.45315 113.946 6.46847 113.843 7.47385C113.739 8.47922 113.39 9.4438 112.824 10.2826C112.259 11.1214 111.495 11.8086 110.6 12.2838C109.706 12.759 108.708 13.0075 107.694 13.0075H71.1589C70.1453 13.0075 69.1472 12.7589 68.2526 12.2836C67.358 11.8084 66.5944 11.1211 66.029 10.2824C65.4636 9.44359 65.1138 8.47905 65.0103 7.47371C64.9069 6.46838 65.053 5.45311 65.4358 4.51735H57.6608C54.2103 4.51735 50.901 5.884 48.4611 8.31665C46.0211 10.7493 44.6504 14.0487 44.6504 17.489V181.892C44.6504 185.332 46.0211 188.631 48.4611 191.064C50.901 193.497 54.2103 194.863 57.6608 194.863H121.741C125.192 194.863 128.501 193.497 130.941 191.064C133.381 188.631 134.752 185.332 134.752 181.892V17.4887C134.752 14.0485 133.381 10.7491 130.941 8.31655C128.501 5.88396 125.192 4.51735 121.741 4.51735Z" fill="#F7FFFE"/>
<path d="M81.5355 70.007C81.5353 68.8578 81.8388 67.7289 82.4152 66.7338C82.9917 65.7387 83.8209 64.9125 84.8194 64.3385C83.8214 63.7638 82.6893 63.4612 81.5368 63.4611C80.3843 63.4609 79.2521 63.7633 78.2539 64.3378C77.2558 64.9122 76.4269 65.7385 75.8506 66.7336C75.2743 67.7287 74.9709 68.8575 74.9709 70.0066C74.9709 71.1556 75.2743 72.2845 75.8506 73.2795C76.4269 74.2746 77.2558 75.1009 78.2539 75.6754C79.2521 76.2499 80.3843 76.5522 81.5368 76.5521C82.6893 76.552 83.8214 76.2493 84.8194 75.6747C83.821 75.1008 82.9918 74.2748 82.4153 73.2798C81.8388 72.2848 81.5354 71.156 81.5355 70.007Z" fill="#B3B3B3"/>
<path d="M89.7887 70.007C89.7885 68.8578 90.0919 67.7289 90.6684 66.7338C91.2449 65.7386 92.0741 64.9125 93.0726 64.3385C92.0746 63.7638 90.9425 63.4612 89.79 63.4611C88.6375 63.4609 87.5052 63.7633 86.5071 64.3378C85.509 64.9122 84.6801 65.7385 84.1038 66.7336C83.5275 67.7287 83.2241 68.8575 83.2241 70.0066C83.2241 71.1556 83.5275 72.2845 84.1038 73.2795C84.6801 74.2746 85.509 75.1009 86.5071 75.6754C87.5052 76.2499 88.6375 76.5522 89.79 76.5521C90.9425 76.552 92.0746 76.2493 93.0726 75.6747C92.0742 75.1008 91.245 74.2748 90.6685 73.2798C90.092 72.2848 89.7886 71.156 89.7887 70.007Z" fill="#B3B3B3"/>
<path d="M97.8547 76.5522C101.48 76.5522 104.42 73.6217 104.42 70.0067C104.42 66.3917 101.48 63.4612 97.8547 63.4612C94.2288 63.4612 91.2896 66.3917 91.2896 70.0067C91.2896 73.6217 94.2288 76.5522 97.8547 76.5522Z" fill="#01968B"/>
<path d="M108.827 90.4509H70.5637C70.1994 90.4505 69.8502 90.306 69.5926 90.0492C69.335 89.7924 69.1901 89.4442 69.1897 89.0811V50.9324C69.1901 50.5692 69.335 50.221 69.5926 49.9642C69.8502 49.7074 70.1994 49.5629 70.5637 49.5625H108.827C109.191 49.5629 109.54 49.7074 109.798 49.9642C110.055 50.221 110.2 50.5692 110.2 50.9324V89.0811C110.2 89.4442 110.055 89.7924 109.798 90.0492C109.54 90.306 109.191 90.4505 108.827 90.4509ZM70.5637 50.1108C70.3451 50.111 70.1356 50.1976 69.981 50.3517C69.8265 50.5058 69.7396 50.7147 69.7393 50.9326V89.0813C69.7396 89.2992 69.8265 89.5081 69.981 89.6622C70.1356 89.8163 70.3451 89.903 70.5637 89.9032H108.827C109.045 89.903 109.255 89.8163 109.409 89.6622C109.564 89.5081 109.651 89.2992 109.651 89.0813V50.9326C109.651 50.7147 109.564 50.5058 109.409 50.3517C109.255 50.1976 109.045 50.111 108.827 50.1108H70.5637Z" fill="#B3B3B3"/>
<path d="M117.37 119.694H58.6863V120.242H117.37V119.694Z" fill="#CCCCCC"/>
<path d="M60.5395 116.272C61.5631 116.272 62.3928 115.445 62.3928 114.425C62.3928 113.404 61.5631 112.577 60.5395 112.577C59.516 112.577 58.6863 113.404 58.6863 114.425C58.6863 115.445 59.516 116.272 60.5395 116.272Z" fill="#01968B"/>
<path d="M117.37 138.17H58.6863V138.718H117.37V138.17Z" fill="#CCCCCC"/>
<path d="M60.5395 134.749C61.5631 134.749 62.3928 133.922 62.3928 132.901C62.3928 131.881 61.5631 131.053 60.5395 131.053C59.516 131.053 58.6863 131.881 58.6863 132.901C58.6863 133.922 59.516 134.749 60.5395 134.749Z" fill="#01968B"/>
<path d="M116.296 159.21H97.7505C97.4302 159.21 97.123 159.083 96.8965 158.857C96.67 158.631 96.5426 158.325 96.5422 158.005V151.525C96.5426 151.205 96.67 150.899 96.8965 150.673C97.123 150.447 97.4302 150.32 97.7505 150.32H116.296C116.617 150.32 116.924 150.447 117.15 150.673C117.377 150.899 117.504 151.205 117.504 151.525V158.005C117.504 158.325 117.377 158.631 117.15 158.857C116.924 159.083 116.617 159.21 116.296 159.21Z" fill="#01968B"/>
<path d="M66.585 116.272C67.6085 116.272 68.4382 115.445 68.4382 114.425C68.4382 113.404 67.6085 112.577 66.585 112.577C65.5614 112.577 64.7317 113.404 64.7317 114.425C64.7317 115.445 65.5614 116.272 66.585 116.272Z" fill="#01968B"/>
<path d="M72.6301 116.272C73.6537 116.272 74.4834 115.445 74.4834 114.425C74.4834 113.404 73.6537 112.577 72.6301 112.577C71.6066 112.577 70.7769 113.404 70.7769 114.425C70.7769 115.445 71.6066 116.272 72.6301 116.272Z" fill="#01968B"/>
<path d="M66.585 134.749C67.6085 134.749 68.4382 133.922 68.4382 132.901C68.4382 131.881 67.6085 131.053 66.585 131.053C65.5614 131.053 64.7317 131.881 64.7317 132.901C64.7317 133.922 65.5614 134.749 66.585 134.749Z" fill="#01968B"/>
<path d="M72.6301 134.749C73.6537 134.749 74.4834 133.922 74.4834 132.901C74.4834 131.881 73.6537 131.053 72.6301 131.053C71.6066 131.053 70.7769 131.881 70.7769 132.901C70.7769 133.922 71.6066 134.749 72.6301 134.749Z" fill="#01968B"/>
<path d="M151.622 131.034C151.754 131.094 151.88 131.164 152.001 131.244L164.044 126.12L164.474 122.957L169.286 122.927L169.002 130.182L153.106 134.373C153.072 134.483 153.032 134.591 152.986 134.696C152.756 135.185 152.386 135.596 151.923 135.876C151.46 136.156 150.925 136.294 150.384 136.271C149.843 136.249 149.32 136.068 148.882 135.75C148.444 135.433 148.11 134.994 147.921 134.487C147.733 133.981 147.698 133.431 147.823 132.905C147.947 132.38 148.224 131.902 148.619 131.533C149.015 131.164 149.511 130.92 150.045 130.831C150.579 130.742 151.128 130.813 151.622 131.034Z" fill="#FFB8B8"/>
<path d="M171.036 196.772H167.744L166.178 184.113L171.037 184.113L171.036 196.772Z" fill="#FFB8B8"/>
<path d="M165.393 195.835H171.741V199.82H161.396C161.396 198.763 161.817 197.749 162.566 197.002C163.316 196.255 164.333 195.835 165.393 195.835Z" fill="#2F2E41"/>
<path d="M183.839 195.845L180.563 196.167L177.759 183.722L182.594 183.247L183.839 195.845Z" fill="#FFB8B8"/>
<path d="M178.131 195.463L184.449 194.843L184.841 198.809L174.544 199.82C174.493 199.299 174.545 198.774 174.697 198.273C174.85 197.772 175.099 197.306 175.432 196.901C175.766 196.497 176.175 196.162 176.638 195.915C177.101 195.668 177.608 195.515 178.131 195.463Z" fill="#2F2E41"/>
<path d="M171.953 109.529C175.595 109.529 178.547 106.586 178.547 102.954C178.547 99.3228 175.595 96.379 171.953 96.379C168.31 96.379 165.358 99.3228 165.358 102.954C165.358 106.586 168.31 109.529 171.953 109.529Z" fill="#FFB8B8"/>
<path d="M167.009 194.212C166.726 194.213 166.452 194.114 166.235 193.933C166.018 193.752 165.872 193.5 165.823 193.223C164.119 183.792 158.55 152.958 158.417 152.103C158.414 152.084 158.412 152.064 158.412 152.044V149.745C158.412 149.661 158.438 149.58 158.487 149.512L159.223 148.484C159.258 148.435 159.304 148.394 159.357 148.365C159.41 148.336 159.47 148.319 159.53 148.317C163.725 148.121 177.462 147.546 178.126 148.373C178.793 149.204 178.557 151.721 178.503 152.217L178.506 152.269L184.678 191.621C184.726 191.935 184.648 192.255 184.462 192.512C184.275 192.77 183.994 192.943 183.68 192.996L179.825 193.629C179.538 193.675 179.244 193.617 178.997 193.465C178.749 193.313 178.564 193.077 178.476 192.801C177.284 189.002 173.286 176.225 171.9 171.281C171.892 171.249 171.872 171.222 171.845 171.204C171.817 171.187 171.785 171.179 171.752 171.184C171.72 171.188 171.691 171.204 171.669 171.229C171.648 171.254 171.637 171.285 171.637 171.318C171.706 176.031 171.874 188.056 171.931 192.209L171.938 192.656C171.94 192.959 171.829 193.252 171.625 193.477C171.422 193.702 171.141 193.842 170.839 193.871L167.121 194.207C167.084 194.211 167.046 194.212 167.009 194.212Z" fill="#2F2E41"/>
<path d="M167.767 112.115C166.616 112.797 165.927 114.051 165.532 115.326C164.801 117.688 164.36 120.129 164.221 122.597L163.803 129.986L158.633 149.574C163.114 153.354 165.699 152.495 171.731 149.403C177.763 146.311 178.452 150.434 178.452 150.434L179.659 133.767L181.382 115.554C180.995 115.09 180.557 114.67 180.077 114.303C178.484 113.068 176.63 112.209 174.656 111.792C172.682 111.375 170.639 111.41 168.68 111.895L167.767 112.115Z" fill="#01968B"/>
<path d="M166.088 134.99C166.227 135.042 166.361 135.105 166.491 135.178L178.399 129.236L178.596 126.016L183.508 125.679L183.772 133.017L167.858 138.264C167.728 138.82 167.432 139.323 167.008 139.707C166.584 140.09 166.053 140.336 165.486 140.412C164.919 140.487 164.342 140.389 163.832 140.129C163.323 139.87 162.904 139.462 162.633 138.96C162.361 138.457 162.249 137.885 162.312 137.318C162.375 136.75 162.61 136.216 162.985 135.785C163.36 135.354 163.858 135.047 164.412 134.905C164.966 134.763 165.551 134.793 166.088 134.99Z" fill="#FFB8B8"/>
<path d="M181.296 115.637C184.226 116.668 184.742 127.838 184.742 127.838C181.295 125.948 177.159 129.041 177.159 129.041C177.159 129.041 176.297 126.12 175.263 122.339C174.951 121.276 174.913 120.151 175.154 119.07C175.395 117.988 175.907 116.985 176.642 116.154C176.642 116.154 178.366 114.606 181.296 115.637Z" fill="#01968B"/>
<path d="M177.866 104.693C177.044 104.038 175.923 105.229 175.923 105.229L175.266 99.3304C175.266 99.3304 171.157 99.8211 168.528 99.1667C165.898 98.5122 165.488 101.543 165.488 101.543C165.352 100.319 165.325 99.0849 165.405 97.856C165.57 96.3814 167.706 94.9067 171.486 93.9235C175.266 92.9403 177.238 97.2006 177.238 97.2006C179.867 98.5112 178.687 105.349 177.866 104.693Z" fill="#2F2E41"/>
<defs>
<filter id="filter0_b_472_1471" x="-20" y="136.15" width="86.1711" height="83.1558" filterUnits="userSpaceOnUse" color-interpolation-filters="sRGB">
<feFlood flood-opacity="0" result="BackgroundImageFix"/>
<feGaussianBlur in="BackgroundImageFix" stdDeviation="10"/>
<feComposite in2="SourceAlpha" operator="in" result="effect1_backgroundBlur_472_1471"/>
<feBlend mode="normal" in="SourceGraphic" in2="effect1_backgroundBlur_472_1471" result="shape"/>
</filter>
<filter id="filter1_b_472_1471" x="2.7041" y="120.492" width="65.636" height="98.7362" filterUnits="userSpaceOnUse" color-interpolation-filters="sRGB">
<feFlood flood-opacity="0" result="BackgroundImageFix"/>
<feGaussianBlur in="BackgroundImageFix" stdDeviation="10"/>
<feComposite in2="SourceAlpha" operator="in" result="effect1_backgroundBlur_472_1471"/>
<feBlend mode="normal" in="SourceGraphic" in2="effect1_backgroundBlur_472_1471" result="shape"/>
</filter>
</defs>
</svg>
